<?xml version="1.0" encoding="utf-8"?>
<!-- Generator: Adobe Illustrator 19.0.0, SVG Export Plug-In . SVG Version: 6.00 Build 0)  -->
<svg version="1.1" id="Layer_1" xmlns="http://www.w3.org/2000/svg" xmlns:xlink="http://www.w3.org/1999/xlink" x="0px" y="0px"
	 viewBox="0 0 60 60" enable-background="new 0 0 60 60" xml:space="preserve">
<g>
	<g>
		<line fill="none" stroke="#CE2028" stroke-width="4" stroke-miterlimit="10" x1="30.29" y1="51.15" x2="0.82" y2="51.15"/>
	</g>
	<g>
		<path fill="#CE2028" d="M43.66,52.99h13.28v-3.36h-8.42C47.04,50.92,45.41,52.06,43.66,52.99z"/>
	</g>
	<polygon fill="#CE2028" points="59.18,51.31 54.7,47.36 54.7,55.26 	"/>
	<path fill="#CE2028" d="M30.66,4.74C17.4,4.74,6.62,15.53,6.62,28.79c0,6.75,2.8,12.85,7.3,17.22l2.51-2.25
		c-4.06-3.78-6.44-9-6.44-14.97c0-11.4,9.28-20.68,20.68-20.68c11.4,0,20.68,9.28,20.68,20.68c0,11.4-9.28,20.68-20.68,20.68
		c-0.12,0-0.25-0.01-0.37-0.01v0.01H18.41c3.59,2.13,7.78,3.36,12.25,3.36c13.26,0,24.04-10.79,24.04-24.04
		C54.7,15.53,43.92,4.74,30.66,4.74z"/>
	<polygon fill="#CE2028" points="14.62,42.46 11.94,44.55 10.47,45.7 16.34,46.79 16.47,44.64 16.51,44.02 16.7,40.84 	"/>
</g>
</svg>
