<?xml version="1.0" encoding="utf-8"?>
<!-- Generator: Adobe Illustrator 19.0.0, SVG Export Plug-In . SVG Version: 6.00 Build 0)  -->
<svg version="1.1" id="Layer_1" xmlns="http://www.w3.org/2000/svg" xmlns:xlink="http://www.w3.org/1999/xlink" x="0px" y="0px"
	 viewBox="0 0 60 60" enable-background="new 0 0 60 60" xml:space="preserve">
<g>
	<path fill="#CE2028" d="M23.47,30.1h3.99l-7.76-8.32l-8.32,8.32h4.98C16.31,32.9,17.8,45.45,30,45.45
		C30,45.45,23.47,39.73,23.47,30.1z"/>
	<path fill="#CE2028" d="M36.53,29.9h-3.99l7.76,8.32l8.32-8.32h-4.98C43.69,27.1,42.2,14.55,30,14.55
		C30,14.55,36.53,20.27,36.53,29.9z"/>
</g>
<g>
	<path fill="#CE2028" d="M30,7.04c12.66,0,22.96,10.3,22.96,22.96S42.66,52.96,30,52.96S7.04,42.66,7.04,30S17.34,7.04,30,7.04
		 M30,3.04C15.11,3.04,3.04,15.11,3.04,30S15.11,56.96,30,56.96S56.96,44.89,56.96,30S44.89,3.04,30,3.04L30,3.04z"/>
</g>
</svg>
