<?xml version="1.0" encoding="utf-8"?>
<!-- Generator: Adobe Illustrator 19.0.0, SVG Export Plug-In . SVG Version: 6.00 Build 0)  -->
<svg version="1.1" id="Layer_1" xmlns="http://www.w3.org/2000/svg" xmlns:xlink="http://www.w3.org/1999/xlink" x="0px" y="0px"
	 viewBox="0 0 60 60" enable-background="new 0 0 60 60" xml:space="preserve">
<g>
	<path fill="#CE2028" d="M30,7.22c12.56,0,22.78,10.22,22.78,22.78S42.56,52.78,30,52.78S7.22,42.56,7.22,30S17.44,7.22,30,7.22
		 M30,3.22C15.21,3.22,3.22,15.21,3.22,30S15.21,56.78,30,56.78S56.78,44.79,56.78,30S44.79,3.22,30,3.22L30,3.22z"/>
</g>
<g>
	<g>
		<path fill="#CE2028" d="M33.99,34.03c0-2.27-2.68-2.51-5.53-2.81c-3.25-0.35-6.77-1.27-6.77-5.54c0-4.7,4.69-5.73,9.29-5.73
			c2.21,0,4.26,0.22,6.2,0.38v3.03c-1.68-0.19-4.02-0.46-6.14-0.46c-3.35,0-5.03,0.84-5.03,2.7c0,2.03,2.25,2.32,4.8,2.65
			c3.52,0.46,7.51,0.92,7.51,5.65c0,4.3-3.76,6.16-9.19,6.16c-2.68,0-5.06-0.24-7.14-0.57v-3.05c2.52,0.38,4.76,0.68,6.81,0.68
			C32.18,37.11,33.99,36.08,33.99,34.03z"/>
	</g>
	<rect x="29.67" y="11.66" fill="#CE2028" width="2.97" height="6.78"/>
	<rect x="29.67" y="41.56" fill="#CE2028" width="2.97" height="6.78"/>
</g>
</svg>
