<?xml version="1.0" encoding="utf-8"?>
<!-- Generator: Adobe Illustrator 19.0.0, SVG Export Plug-In . SVG Version: 6.00 Build 0)  -->
<svg version="1.1" id="Layer_1" xmlns="http://www.w3.org/2000/svg" xmlns:xlink="http://www.w3.org/1999/xlink" x="0px" y="0px"
	 viewBox="0 0 60 60" enable-background="new 0 0 60 60" xml:space="preserve">
<g>
	<path fill="#CE2028" d="M10.6,31.85c-4.23,0-7.67-3.44-7.67-7.67s3.44-7.67,7.67-7.67s7.67,3.44,7.67,7.67S14.82,31.85,10.6,31.85z
		 M10.6,20.51c-2.02,0-3.67,1.64-3.67,3.67s1.64,3.67,3.67,3.67s3.67-1.64,3.67-3.67S12.62,20.51,10.6,20.51z"/>
	<path fill="#CE2028" d="M30,18.51c-4.23,0-7.67-3.44-7.67-7.67S25.78,3.18,30,3.18s7.67,3.44,7.67,7.67S34.23,18.51,30,18.51z
		 M30,7.18c-2.02,0-3.67,1.64-3.67,3.67s1.64,3.67,3.67,3.67s3.67-1.64,3.67-3.67S32.02,7.18,30,7.18z"/>
	<path fill="#CE2028" d="M49.4,23.41c-1.82,0-3.65-0.65-5.11-1.96c-1.52-1.37-2.42-3.25-2.54-5.29c-0.11-2.04,0.58-4.01,1.95-5.53
		c2.82-3.15,7.68-3.41,10.82-0.59c3.15,2.82,3.41,7.68,0.59,10.82C53.6,22.55,51.51,23.41,49.4,23.41z M49.41,12.08
		c-1.01,0-2.01,0.41-2.73,1.22c-0.65,0.73-0.98,1.67-0.93,2.65c0.05,0.98,0.48,1.88,1.21,2.53c1.51,1.35,3.83,1.22,5.18-0.28
		c1.35-1.5,1.22-3.83-0.28-5.18C51.16,12.39,50.28,12.08,49.41,12.08z"/>
	<polygon fill="#CE2028" points="39.5,56.82 35.5,56.75 35.59,51.36 27.63,46.56 27.63,16.51 31.63,16.51 31.63,44.3 39.63,49.13 	
		"/>
	<polygon fill="#CE2028" points="30.26,42.39 9.16,37.61 9.01,28.59 13,28.53 13.11,34.4 29.75,38.17 48.23,28.91 48.43,20.69 
		52.43,20.78 52.18,31.41 	"/>
</g>
</svg>
