<?xml version="1.0" encoding="utf-8"?>
<!-- Generator: Adobe Illustrator 19.0.0, SVG Export Plug-In . SVG Version: 6.00 Build 0)  -->
<svg version="1.1" id="Layer_1" xmlns="http://www.w3.org/2000/svg" xmlns:xlink="http://www.w3.org/1999/xlink" x="0px" y="0px"
	 viewBox="0 0 60 60" enable-background="new 0 0 60 60" xml:space="preserve">
<g>
	<path fill="none" stroke="#CA2039" stroke-width="4" stroke-miterlimit="10" d="M7.79,40.43"/>
	<path fill="#CE2028" d="M36.45,36.43c-4.48,4.55-11.11,6.81-17.82,5.44c-5.1-1.04-9.5-4.01-12.37-8.36
		c-2.87-4.35-3.88-9.55-2.83-14.66c1.04-5.1,4.01-9.49,8.36-12.37c4.35-2.87,9.55-3.88,14.66-2.83C37,5.81,43.82,16.13,41.66,26.67
		C40.88,30.5,39.01,33.84,36.45,36.43z M12.14,12.54c-1.96,1.99-3.31,4.5-3.88,7.3c-0.78,3.81-0.03,7.71,2.12,10.95
		c2.15,3.25,5.43,5.47,9.24,6.25c7.87,1.61,15.59-3.48,17.21-11.36c1.61-7.88-3.48-15.59-11.36-17.2l0,0
		c-3.81-0.78-7.71-0.03-10.95,2.12C13.65,11.17,12.86,11.82,12.14,12.54z"/>
	<polygon fill="#CE2028" points="40.07,34.68 34.7,40.13 42.6,47.91 43.86,46.63 54.12,56.75 56.97,53.87 46.7,43.74 47.96,42.47 	
		"/>
</g>
</svg>
