<?xml version="1.0" encoding="utf-8"?>
<!-- Generator: Adobe Illustrator 19.0.0, SVG Export Plug-In . SVG Version: 6.00 Build 0)  -->
<svg version="1.1" id="Layer_1" xmlns="http://www.w3.org/2000/svg" xmlns:xlink="http://www.w3.org/1999/xlink" x="0px" y="0px"
	 viewBox="0 0 60 60" enable-background="new 0 0 60 60" xml:space="preserve">
<g>
	<path fill="#CE2028" d="M35.54,33.04c0-3.06-2.48-5.54-5.54-5.54s-5.54,2.48-5.54,5.54c0,2.35,1.47,4.36,3.54,5.16v11.08h4V38.21
		C34.07,37.41,35.54,35.4,35.54,33.04z"/>
	<path fill="#CE2028" d="M46.79,19.16h-0.43c-0.55-8.81-7.88-15.82-16.83-15.82c-8.96,0-16.29,7.02-16.83,15.85
		c-5.26,0.27-9.49,4.65-9.49,9.97v17.51c0,5.5,4.5,10,10,10h33.58c5.5,0,10-4.5,10-10V29.16C56.79,23.66,52.29,19.16,46.79,19.16z
		 M29.53,7.34c6.75,0,12.29,5.21,12.83,11.82H16.7C17.24,12.55,22.78,7.34,29.53,7.34z M52.79,46.66c0,3.31-2.69,6-6,6H13.21
		c-3.31,0-6-2.69-6-6V29.16c0-3.31,2.69-6,6-6h33.58c3.31,0,6,2.69,6,6V46.66z"/>
</g>
</svg>
