<?xml version="1.0" encoding="utf-8"?>
<!-- Generator: Adobe Illustrator 19.0.0, SVG Export Plug-In . SVG Version: 6.00 Build 0)  -->
<svg version="1.1" id="Layer_1" xmlns="http://www.w3.org/2000/svg" xmlns:xlink="http://www.w3.org/1999/xlink" x="0px" y="0px"
	 viewBox="0 0 60 60" enable-background="new 0 0 60 60" xml:space="preserve">
<g>
	<path fill="#CE2028" d="M2.72,11.36c0,0,6.18-3.01,12.72-1.25s7.31,8.15,7.31,8.15s-6.23,1.67-11.04,0.38S2.72,11.36,2.72,11.36z"
		/>
	<rect x="11.8" y="52.7" fill="#CE2028" width="36.27" height="4"/>
	<path fill="#CE2028" d="M36.74,10c0,0,5.9,3.52,12.57,2.32s7.97-7.5,7.97-7.5s-6.07-2.19-10.97-1.31S36.74,10,36.74,10z"/>
	<path fill="#CE2028" d="M31.93,54.7h-4V25.25c-0.01-0.33-0.21-9.5,4.66-14.5c2.06-2.11,4.67-3.18,7.78-3.18v4
		c-2.01,0-3.61,0.64-4.9,1.97c-3.69,3.78-3.54,11.59-3.53,11.67L31.93,54.7z"/>
	<path fill="#CE2028" d="M31.88,28.19h-4c0-9.82-10.52-10.24-10.96-10.25l0.11-4C22.17,14.09,31.88,17.26,31.88,28.19z"/>
</g>
</svg>
