<?xml version="1.0" encoding="utf-8"?>
<!-- Generator: Adobe Illustrator 19.0.0, SVG Export Plug-In . SVG Version: 6.00 Build 0)  -->
<svg version="1.1" id="Layer_1" xmlns="http://www.w3.org/2000/svg" xmlns:xlink="http://www.w3.org/1999/xlink" x="0px" y="0px"
	 viewBox="0 0 60 60" enable-background="new 0 0 60 60" xml:space="preserve">
<g>
	<polygon fill="none" points="41.08,21.52 47.72,21.52 47.72,14.1 38.2,14.1 38.2,21.61 21.8,21.61 21.8,14.1 12.28,14.1 
		12.28,21.52 18.92,21.52 18.92,39.54 12.28,39.54 12.28,42.94 30,52.58 47.72,42.81 47.72,39.54 41.08,39.54 	"/>
	<polygon fill="#CE2028" points="12.28,14.1 21.8,14.1 21.8,10.67 9.16,10.67 9.16,21.52 12.28,21.52 	"/>
	<polygon fill="#CE2028" points="47.72,42.81 30,52.58 12.28,42.94 12.28,39.54 9.16,39.54 9.16,45.07 30,56.42 50.84,44.93 
		50.84,39.54 47.72,39.54 	"/>
	<polygon fill="#CE2028" points="47.72,14.1 47.72,21.52 50.84,21.52 50.84,10.67 38.2,10.67 38.2,14.1 	"/>
	<path fill="#CE2028" d="M21.8,3.58v7.08v3.43v7.51h16.4V14.1v-3.43V3.58H21.8z M35.08,14.1v4.08H24.92V14.1v-3.43V7.02h10.15v3.65
		V14.1z"/>
	<path fill="#CE2028" d="M50.84,21.52h-3.12h-6.64v18.02h6.64h3.12h6.64V21.52H50.84z M54.36,36.11h-3.52h-3.12H44.2V24.95h3.52
		h3.12h3.52V36.11z"/>
	<path fill="#CE2028" d="M12.28,21.52H9.16H2.52v18.02h6.64h3.12h6.64V21.52H12.28z M15.8,36.11h-3.52H9.16H5.64V24.95h3.52h3.12
		h3.52V36.11z"/>
</g>
</svg>
