<?xml version="1.0" encoding="utf-8"?>
<!-- Generator: Adobe Illustrator 19.0.0, SVG Export Plug-In . SVG Version: 6.00 Build 0)  -->
<svg version="1.1" id="Layer_1" xmlns="http://www.w3.org/2000/svg" xmlns:xlink="http://www.w3.org/1999/xlink" x="0px" y="0px"
	 viewBox="0 0 60 60" enable-background="new 0 0 60 60" xml:space="preserve">
<g>
	<g>
		<g>
			<path fill="#CE2028" d="M40.27,7.38c6.93,0,12.57,6.12,12.57,13.64c0,3.4-1.18,6.67-3.29,9.17H7.17c0-0.05,0-0.1,0-0.15
				c0-4.41,3.26-8,7.27-8c0.39,0,0.79,0.04,1.25,0.13l3.07,0.58l1.31-2.84c1.23-2.68,3.69-4.38,6.4-4.46l2.18-0.06l1.13-1.86
				C32.12,9.69,36.04,7.38,40.27,7.38 M40.27,3.38c-5.84,0-10.96,3.22-13.91,8.08c-4.37,0.12-8.11,2.85-9.92,6.78
				c-0.65-0.12-1.31-0.2-1.99-0.2c-6.22,0-11.27,5.37-11.27,12c0,1.46,0.26,2.85,0.71,4.15h47.39c3.41-3.23,5.57-7.93,5.57-13.17
				C56.83,11.28,49.42,3.38,40.27,3.38L40.27,3.38z"/>
		</g>
	</g>
	<g>
		<g>
			<rect x="27.33" y="22.02" fill="#CE2028" width="4" height="25.55"/>
			<polygon fill="#CE2028" points="25.29,47.56 29.34,52.16 33.4,47.56 			"/>
		</g>
		<g>
			<polygon fill="#CE2028" points="22.69,56.62 11.22,56.62 11.22,52.62 18.69,52.62 18.69,25.68 22.69,25.68 			"/>
			<g>
				<polygon fill="#CE2028" points="20.69,22.02 16.63,26.61 24.74,26.61 				"/>
				<polygon fill="#CE2028" points="20.69,22.02 16.63,26.61 24.74,26.61 				"/>
			</g>
		</g>
		<g>
			<polygon fill="#CE2028" points="48.78,56.62 37.31,56.62 37.31,25.68 41.31,25.68 41.31,52.62 48.78,52.62 			"/>
			<g>
				<polygon fill="#CE2028" points="39.31,22.02 43.37,26.61 35.26,26.61 				"/>
				<polygon fill="#CE2028" points="39.31,22.02 43.37,26.61 35.26,26.61 				"/>
			</g>
		</g>
	</g>
</g>
</svg>
