<?xml version="1.0" encoding="utf-8"?>
<!-- Generator: Adobe Illustrator 19.0.0, SVG Export Plug-In . SVG Version: 6.00 Build 0)  -->
<svg version="1.1" id="Layer_1" xmlns="http://www.w3.org/2000/svg" xmlns:xlink="http://www.w3.org/1999/xlink" x="0px" y="0px"
	 viewBox="0 0 60 60" enable-background="new 0 0 60 60" xml:space="preserve">
<g>
	<path fill="#CE2028" d="M30,6.65c12.88,0,23.35,10.48,23.35,23.35S42.88,53.35,30,53.35S6.65,42.88,6.65,30S17.12,6.65,30,6.65
		 M30,2.65C14.89,2.65,2.65,14.89,2.65,30S14.89,57.35,30,57.35S57.35,45.11,57.35,30S45.11,2.65,30,2.65L30,2.65z"/>
	<polygon fill="#CE2028" points="9.02,44.04 8.67,53.76 18.62,45.58 	"/>
	<polygon fill="#CE2028" points="54.15,19.27 53.91,9.54 44.47,18.3 	"/>
	<g>
		<path fill="#CE2028" d="M44.28,32.2v-4h-4.86c-0.25-1.18-0.71-2.27-1.35-3.24l3.44-3.44l-2.83-2.83l-3.44,3.44
			c-0.98-0.64-2.07-1.1-3.25-1.35v-4.85h-4v4.85c-1.18,0.25-2.27,0.72-3.25,1.35l-3.44-3.44l-2.83,2.83l3.44,3.44
			c-0.63,0.98-1.1,2.07-1.35,3.24h-4.86v4h4.86c0.25,1.17,0.72,2.26,1.35,3.23l-3.45,3.45l2.83,2.83l3.45-3.45
			c0.97,0.63,2.06,1.1,3.23,1.35v4.87h4v-4.87c1.17-0.25,2.26-0.71,3.23-1.34l3.45,3.45l2.83-2.83l-3.45-3.45
			c0.63-0.97,1.1-2.06,1.35-3.24H44.28z M30,35.41c-2.87,0-5.21-2.33-5.21-5.21S27.13,25,30,25s5.21,2.33,5.21,5.21
			S32.87,35.41,30,35.41z"/>
	</g>
</g>
</svg>
