<?xml version="1.0" encoding="utf-8"?>
<!-- Generator: Adobe Illustrator 19.0.0, SVG Export Plug-In . SVG Version: 6.00 Build 0)  -->
<svg version="1.1" id="Layer_1" xmlns="http://www.w3.org/2000/svg" xmlns:xlink="http://www.w3.org/1999/xlink" x="0px" y="0px"
	 viewBox="0 0 60 60" enable-background="new 0 0 60 60" xml:space="preserve">
<g>
	<circle fill="none" stroke="#CE2028" stroke-width="4" stroke-miterlimit="10" cx="29.39" cy="30" r="18.63"/>
	<g>
		<path fill="#FFFFFF" d="M29.39,17.93c-3.62,0-6.56-2.94-6.56-6.56s2.94-6.56,6.56-6.56s6.56,2.94,6.56,6.56S33,17.93,29.39,17.93z
			"/>
		<path fill="#CE2028" d="M29.39,6.82c2.51,0,4.56,2.04,4.56,4.56s-2.04,4.56-4.56,4.56s-4.56-2.04-4.56-4.56S26.88,6.82,29.39,6.82
			 M29.39,2.82c-4.73,0-8.56,3.83-8.56,8.56s3.83,8.56,8.56,8.56c4.73,0,8.56-3.83,8.56-8.56S34.12,2.82,29.39,2.82L29.39,2.82z"/>
	</g>
	<g>
		<path fill="#FFFFFF" d="M29.39,55.18c-3.62,0-6.56-2.94-6.56-6.56s2.94-6.56,6.56-6.56s6.56,2.94,6.56,6.56S33,55.18,29.39,55.18z
			"/>
		<path fill="#CE2028" d="M29.39,44.07c2.51,0,4.56,2.04,4.56,4.56s-2.04,4.56-4.56,4.56s-4.56-2.04-4.56-4.56
			S26.88,44.07,29.39,44.07 M29.39,40.07c-4.73,0-8.56,3.83-8.56,8.56s3.83,8.56,8.56,8.56c4.73,0,8.56-3.83,8.56-8.56
			S34.12,40.07,29.39,40.07L29.39,40.07z"/>
	</g>
	<g>
		<rect x="5.37" y="23.54" fill="#FFFFFF" width="12.93" height="12.93"/>
		<path fill="#CE2028" d="M16.3,25.54v8.93H7.37v-8.93H16.3 M20.3,21.54H3.37v16.93H20.3V21.54L20.3,21.54z"/>
	</g>
	<g>
		<rect x="41.55" y="23.54" fill="#FFFFFF" width="12.93" height="12.93"/>
		<path fill="#CE2028" d="M52.48,25.54v8.93h-8.93v-8.93H52.48 M56.48,21.54H39.55v16.93h16.93V21.54L56.48,21.54z"/>
	</g>
	<g>
		<rect x="56.63" y="40.68" fill="#CE2028" width="0" height="0"/>
	</g>
</g>
</svg>
