<?xml version="1.0" encoding="utf-8"?>
<!-- Generator: Adobe Illustrator 19.0.0, SVG Export Plug-In . SVG Version: 6.00 Build 0)  -->
<svg version="1.1" id="Layer_1" xmlns="http://www.w3.org/2000/svg" xmlns:xlink="http://www.w3.org/1999/xlink" x="0px" y="0px"
	 viewBox="0 0 60 60" enable-background="new 0 0 60 60" xml:space="preserve">
<g>
	<path fill="#CE2028" d="M45.34,7.2V52.8H7.41V7.2H45.34 M49.34,3.21H3.41v53.57h45.93V3.21L49.34,3.21z"/>
	<g>
		<path fill="#FFFFFF" d="M42.73,43.13c-6.54,0-11.87-5.3-11.87-11.81s5.32-11.81,11.87-11.81c6.54,0,11.87,5.3,11.87,11.81
			S49.27,43.13,42.73,43.13z"/>
		<path fill="#CE2028" d="M42.73,21.52c5.44,0,9.87,4.4,9.87,9.81c0,5.41-4.43,9.81-9.87,9.81s-9.87-4.4-9.87-9.81
			C32.86,25.92,37.29,21.52,42.73,21.52 M42.73,17.52c-7.66,0-13.87,6.18-13.87,13.81c0,7.63,6.21,13.81,13.87,13.81
			s13.87-6.18,13.87-13.81C56.59,23.7,50.39,17.52,42.73,17.52L42.73,17.52z"/>
	</g>
	<rect x="11.63" y="12.79" fill="#CE2028" width="21.55" height="3.98"/>
	<rect x="11.63" y="23.32" fill="#CE2028" width="12.11" height="3.98"/>
	<rect x="11.63" y="33.86" fill="#CE2028" width="12.11" height="3.98"/>
	<rect x="11.63" y="44.39" fill="#CE2028" width="21.55" height="3.98"/>
	<g>
		<polygon fill="#CE2028" points="41.23,39.5 35.77,33.07 38.82,30.48 40.88,32.91 46.26,25.01 49.57,27.26 		"/>
	</g>
</g>
</svg>
