<?xml version="1.0" encoding="utf-8"?>
<!-- Generator: Adobe Illustrator 19.0.0, SVG Export Plug-In . SVG Version: 6.00 Build 0)  -->
<svg version="1.1" id="Layer_1" xmlns="http://www.w3.org/2000/svg" xmlns:xlink="http://www.w3.org/1999/xlink" x="0px" y="0px"
	 viewBox="0 0 60 60" enable-background="new 0 0 60 60" xml:space="preserve">
<g>
	<path fill="#CE2028" d="M28.71,17.08h-7.07c1.52-1.5,2.46-3.6,2.46-5.91c0-4.57-3.68-8.29-8.21-8.29S7.69,6.6,7.69,11.17
		c0,2.31,0.95,4.41,2.46,5.91H3.09v25.13h4.6v14.91H24.1V42.21h4.6V17.08z M15.9,6.92c2.32,0,4.21,1.91,4.21,4.25
		s-1.89,4.25-4.21,4.25c-2.32,0-4.21-1.91-4.21-4.25S13.58,6.92,15.9,6.92z M20.1,53.08h-8.42V42.21h8.42V53.08z M24.71,38.17h-0.6
		H7.69h-0.6V21.12h17.62V38.17z"/>
	<path fill="#CE2028" d="M56.91,17.08h-7.07c1.52-1.5,2.46-3.6,2.46-5.91c0-4.57-3.68-8.29-8.21-8.29S35.9,6.6,35.9,11.17
		c0,2.31,0.95,4.41,2.46,5.91h-7.07v25.13h4.6v14.91h16.42V42.21h4.6V17.08z M44.1,6.92c2.32,0,4.21,1.91,4.21,4.25
		s-1.89,4.25-4.21,4.25c-2.32,0-4.21-1.91-4.21-4.25S41.78,6.92,44.1,6.92z M48.31,53.08H39.9V42.21h8.42V53.08z M52.91,38.17h-0.6
		H35.9h-0.6V21.12h17.62V38.17z"/>
</g>
</svg>
