<?xml version="1.0" encoding="UTF-8"?>
<svg viewBox="0 0 92 93" version="1.1" xmlns="http://www.w3.org/2000/svg" xmlns:xlink="http://www.w3.org/1999/xlink">
    <g id="Page-1" stroke="none" stroke-width="1" fill="none" fill-rule="evenodd">
        <g id="Home" transform="translate(-669.000000, -13.000000)">
            <g id="Group-6" transform="translate(669.000000, 13.000000)">
                <g id="Group-3">
                    <polygon id="Clip-2" points="0 0.467745041 91.6249564 0.467745041 91.6249564 92.6134245 0 92.6134245"></polygon>
                    <path d="M91.6249564,46.540538 C91.6249564,21.0952078 71.1139682,0.467651492 45.8124317,0.467651492 C20.5108952,0.467651492 -9.30203547e-05,21.0952078 -9.30203547e-05,46.540538 C-9.30203547e-05,71.9858682 20.5108952,92.6134245 45.8124317,92.6134245 C71.1139682,92.6134245 91.6249564,71.9858682 91.6249564,46.540538" id="Fill-1" fill="#CD2028"></path>
                </g>
                <path d="M43.6758541,7.54265776 C41.6529655,8.82053079 40.8456659,7.09809794 43.6758541,7.54265776 M26.7364817,40.7134417 C26.398715,40.4013039 26.785662,38.3979471 26.6047156,35.9320589 C26.4432557,33.7395277 25.6832805,31.1090577 25.8465963,30.0345472 C25.8827856,30.952043 26.6910131,36.1723104 28.0736297,36.1685269 C28.0411521,38.1983681 27.1651856,38.7346775 26.7364817,40.7134417 M77.9703118,76.0493265 C77.9164919,75.7248924 77.7633833,75.4354556 77.5508872,75.1791243 C77.5508872,75.1271013 77.554599,75.0760242 77.553671,75.0202178 C75.749774,72.9222738 72.4426295,72.3547506 70.6443001,70.2492396 C70.4763446,64.3848334 72.5252153,58.1477537 71.7587447,52.0724181 C71.6538885,51.230592 71.1806439,50.4209256 71.0915626,49.5743702 C70.9857785,48.5689083 71.2576622,47.5804721 71.0915626,46.6204121 C70.4800563,43.1064977 67.5060389,41.6820145 65.5184116,39.5774494 C66.0538276,34.3902876 65.8042142,30.8565099 63.2895224,27.989572 C62.8589626,27.4986645 62.1351768,27.0711303 61.7305991,26.6256246 C58.884636,23.5099224 56.3374667,19.8229135 52.1460043,18.6765166 C51.5920298,13.4089557 50.0813588,9.11753458 45.0130021,8.45164072 C44.773596,7.86330836 44.2084863,7.60697706 44.1212608,6.86068408 C44.3096307,6.36977653 44.6984336,6.08601494 44.5675954,5.27161918 C42.9817621,4.55653997 41.0219727,5.36431463 40.5552237,6.40761141 C40.5125388,7.35821273 41.6492538,7.10850253 41.4478929,8.22463145 C38.8366963,9.5015586 37.8354592,12.4176819 36.9891865,15.4955492 C29.2019932,13.4694915 23.0377505,18.9281186 22.056,20.4925908 C17.2391124,27.4050231 22.121883,32.6716382 23.6167792,39.1253226 C23.1398229,40.0012001 22.1153875,40.3180672 21.8332966,41.3944695 C21.8620625,42.4235782 22.3009736,43.0393408 22.5014066,43.8953549 C20.8970147,45.3888868 19.6610112,47.3146821 19.3807762,49.8004336 C18.3795391,58.7304108 23.3365441,64.7735868 23.6167792,71.6122411 C23.191787,72.0303165 22.3974784,72.9676756 22.3974784,72.9676756 C22.3974784,72.9676756 21.6894674,73.5749254 20.71978,74.1112348 L20.7179241,74.1112348 L20.7179241,74.1121807 C20.3838691,74.2975716 20.0201203,74.4725579 19.6424526,74.6116011 C18.1651871,75.1611527 16.4772814,77.2259912 17.1537428,77.97323 C17.8283483,78.7223606 19.5088306,79.2700205 20.2465354,78.8595121 C20.5954373,78.6646625 21.5270795,78.2891513 22.4494425,77.9457998 C25.1571439,77.1692389 28.1441524,76.6811689 30.0176442,75.0533233 C30.0575452,75.0315682 30.5873936,74.597413 30.5474925,73.5919511 C30.5122312,72.6876975 30.1985907,72.3424542 30.060329,72.2431377 C29.7012199,71.7985779 29.4543903,71.2405134 29.1890022,70.7023123 C28.2944771,66.1952324 30.474186,63.5269275 30.7488535,60.7072832 C30.9919713,58.196939 30.3433478,56.4262667 29.4117055,53.8913299 C31.3288101,52.8896514 33.013932,52.870734 35.3495332,52.2975356 C35.5648131,52.9435661 37.8178285,52.1603842 38.3263344,51.8463547 C39.5864641,51.8501382 41.7606055,56.6286833 41.8923716,56.6154411 C42.9223745,57.5215864 51.1187852,56.1103455 52.0355806,56.5880108 C52.0745536,54.9440853 53.9721716,51.740417 54.1521902,51.6193454 C56.7002875,52.3514503 54.8833995,65.318409 54.8203002,65.7052707 C54.2143615,65.9965992 53.3708726,67.0947566 52.44387,67.2782558 C51.4528402,67.7805138 51.0909473,68.2260195 50.8339105,69.2749915 C50.6808019,69.7687366 50.7012164,70.4280094 50.7689553,70.7571728 C50.8199915,71.0049913 51.2672541,71.3332089 51.5196512,71.5006282 C51.7794717,72.2147615 52.0318688,72.794581 54.8203002,74.3372982 C56.2576646,74.5217433 58.6925544,71.8061448 59.0553753,70.2492396 C59.2660155,69.3393108 59.0238256,68.2477745 59.2780786,67.2952814 C59.5276919,66.3598141 60.3275681,65.5075834 60.6161545,64.5702243 C61.157138,62.8004979 60.982687,60.8132209 62.1750778,59.5722369 C63.2969459,63.124932 65.4432493,65.6296009 65.2966362,70.4771947 C64.8410223,71.2178125 64.3250929,72.3500212 64.4726339,73.378184 L64.4642825,73.378184 C64.4642825,73.378184 64.7537968,74.9946792 66.07517,75.2302014 C67.0123798,75.3957289 69.7711174,75.3645152 70.3770561,75.5697694 C70.9811388,75.7778612 75.4843859,77.5561005 76.3575685,77.4189491 C77.2316791,77.2836894 78.1809521,77.3357123 77.9703118,76.0493265" id="Fill-4" fill="#FEFEFE"></path>
            </g>
        </g>
    </g>
</svg>